<svg xmlns="http://www.w3.org/2000/svg" width="39.127" height="56.192" data-name="Grupo 902"><path fill="#292929" d="M30.322 25.891c.007-.081.009-.162.017-.243.047-.517.112-1.034.2-1.547a2.451 2.451 0 0 0-1.181-2.679 2.164 2.164 0 0 0-2.164-.552 18.449 18.449 0 0 1-2.29.513 4.282 4.282 0 0 0-.416-.151 12.239 12.239 0 0 0-4.133-.179c-1.044.06-2.094.147-3.143.185a33.055 33.055 0 0 0-5.514-.585 2.386 2.386 0 0 0-1.224.339 1.939 1.939 0 0 0-2.293 1.868q-.064 1.806-.108 3.612a12.067 12.067 0 0 0 .123 3.417c.746 2.736 3.574 2.6 5.855 2.669 4.7.144 9.411.2 14.116.285a2.282 2.282 0 0 0 2.274-2.275 24.833 24.833 0 0 1-.163-2.179c0-.551.011-1.1 0-1.653.011-.282.02-.564.042-.845" data-name="Trazado 349"/><path fill="#fff" d="M39.123 13.789a1.629 1.629 0 0 0-.733-1.36 3.175 3.175 0 0 0-.224-.272l-11.2-11.2a3.142 3.142 0 0 0-.27-.222 1.633 1.633 0 0 0-1.692-.7 3.229 3.229 0 0 0-.345-.033h-21.4A3.267 3.267 0 0 0-.005 3.266v49.662a3.267 3.267 0 0 0 3.264 3.264h32.6a3.267 3.267 0 0 0 3.264-3.264V14.464a3.207 3.207 0 0 0-.034-.344 1.641 1.641 0 0 0 .034-.331M26.971 5.572l6.585 6.585h-6.585ZM3.264 52.928V3.264h20.444v8.893a3.267 3.267 0 0 0 3.264 3.264h8.892v37.507Z" data-name="Trazado 350"/><path fill="#fff" d="M29.785 18.817H9.342a3.267 3.267 0 0 0-3.264 3.264v9.264a3.267 3.267 0 0 0 3.264 3.264h20.443a3.267 3.267 0 0 0 3.264-3.264v-9.264a3.267 3.267 0 0 0-3.264-3.264M9.342 31.344v-9.263h20.443v9.264Z" data-name="Trazado 351"/><path fill="#fff" d="M7.71 16.103h11.853a1.632 1.632 0 1 0 0-3.264H7.71a1.632 1.632 0 1 0 0 3.264" data-name="Trazado 352"/><path fill="#fff" d="M7.71 10.078h11.853a1.632 1.632 0 1 0 0-3.264H7.71a1.632 1.632 0 1 0 0 3.264" data-name="Trazado 353"/><path fill="#fff" d="M31.417 38.007H7.71a1.632 1.632 0 1 0 0 3.264h23.707a1.632 1.632 0 1 0 0-3.264" data-name="Trazado 354"/><path fill="#fff" d="M25.243 44.734H7.71a1.632 1.632 0 1 0 0 3.264h17.533a1.632 1.632 0 1 0 0-3.264" data-name="Trazado 355"/></svg>