<svg xmlns="http://www.w3.org/2000/svg" width="31.293" height="31.298"><g fill="#fff" data-name="Grupo 891"><path d="M15.646 2.821c4.178 0 4.672.016 6.322.092a8.626 8.626 0 0 1 2.906.539 5.182 5.182 0 0 1 2.969 2.969 8.66 8.66 0 0 1 .537 2.9c.077 1.652.093 2.145.093 6.325s-.016 4.673-.093 6.323a8.66 8.66 0 0 1-.537 2.9 5.191 5.191 0 0 1-2.969 2.969 8.629 8.629 0 0 1-2.906.539c-1.649.075-2.144.091-6.322.091s-4.673-.016-6.322-.091a8.62 8.62 0 0 1-2.9-.539 5.182 5.182 0 0 1-2.969-2.969 8.653 8.653 0 0 1-.538-2.9c-.076-1.65-.093-2.145-.093-6.323s.017-4.673.093-6.325a8.654 8.654 0 0 1 .538-2.9 5.172 5.172 0 0 1 2.969-2.969 8.617 8.617 0 0 1 2.9-.539c1.65-.076 2.144-.092 6.322-.092m0-2.82c-4.249 0-4.782.019-6.451.094a11.481 11.481 0 0 0-3.8.728A8 8 0 0 0 .819 5.399a11.475 11.475 0 0 0-.726 3.8c-.077 1.67-.1 2.2-.1 6.453s.019 4.783.1 6.451a11.455 11.455 0 0 0 .726 3.8 8 8 0 0 0 4.576 4.578 11.48 11.48 0 0 0 3.8.727c1.669.076 2.2.094 6.451.094s4.782-.019 6.451-.094a11.494 11.494 0 0 0 3.8-.727 8.005 8.005 0 0 0 4.575-4.578 11.424 11.424 0 0 0 .726-3.8c.077-1.668.1-2.2.1-6.451s-.02-4.783-.1-6.453a11.444 11.444 0 0 0-.726-3.8A8.007 8.007 0 0 0 25.897.823a11.5 11.5 0 0 0-3.8-.728c-1.669-.075-2.2-.094-6.451-.094" data-name="Trazado 155"/><path d="M15.646 7.614a8.036 8.036 0 1 0 8.034 8.036 8.035 8.035 0 0 0-8.034-8.036m0 13.252a5.216 5.216 0 1 1 5.215-5.216 5.216 5.216 0 0 1-5.215 5.216" data-name="Trazado 156"/><path d="M25.876 7.296a1.877 1.877 0 1 1-1.877-1.878 1.878 1.878 0 0 1 1.877 1.878" data-name="Trazado 157"/></g></svg>