<svg xmlns="http://www.w3.org/2000/svg" width="33.949" height="23.657"><path fill="#fff" d="M33.867 7.866a27.331 27.331 0 0 0-.478-3.9A4.3 4.3 0 0 0 29.321.421 141.328 141.328 0 0 0 14.88.014c-2.243.009-4.486.066-6.724.158a53.795 53.795 0 0 0-4.064.333 4.227 4.227 0 0 0-3.5 3.324 24.263 24.263 0 0 0-.53 4.266c-.014.229-.042.459-.066.688v6.168c.042.557.061 1.123.136 1.676.141 1.095.249 2.2.482 3.272a4.321 4.321 0 0 0 4.031 3.348 140.758 140.758 0 0 0 14.338.4c2.285-.009 4.574-.066 6.859-.153a52.841 52.841 0 0 0 4.027-.338 4.269 4.269 0 0 0 3.545-3.558 28.974 28.974 0 0 0 .525-5.83c.01-1.967.019-3.938-.076-5.9m-21.249 9.223V5.877c3.587 1.873 7.145 3.732 10.779 5.623-3.619 1.878-7.178 3.728-10.779 5.591" data-name="Trazado 159"/></svg>