<svg xmlns="http://www.w3.org/2000/svg" width="30.945" height="21.662"><path fill="#fff" d="M1.161 21.662a1.125 1.125 0 0 1-1.16-1.16v-8.7a4.346 4.346 0 0 1 .387-1.818 3.378 3.378 0 0 1 1.16-1.393V4.1a4.03 4.03 0 0 1 4.1-4.1h6.963a3.357 3.357 0 0 1 1.586.387 4.136 4.136 0 0 1 1.277 1.044A4.212 4.212 0 0 1 16.731.387 3.246 3.246 0 0 1 18.298 0h6.963a4.03 4.03 0 0 1 2.938 1.175 3.935 3.935 0 0 1 1.2 2.92v4.487a3.378 3.378 0 0 1 1.162 1.393 4.346 4.346 0 0 1 .387 1.818v8.7a1.161 1.161 0 1 1-2.321 0v-1.926H2.321v1.934a1.125 1.125 0 0 1-1.16 1.16M16.633 7.93h10.444V4.1a1.7 1.7 0 0 0-.522-1.277 1.8 1.8 0 0 0-1.3-.5H18.18a1.371 1.371 0 0 0-1.1.542 1.9 1.9 0 0 0-.445 1.238Zm-12.765 0h10.444V4.1a1.9 1.9 0 0 0-.445-1.238 1.371 1.371 0 0 0-1.1-.542H5.648a1.783 1.783 0 0 0-1.779 1.779Zm-1.547 8.316h26.3v-4.448a1.52 1.52 0 0 0-1.547-1.547H3.868a1.52 1.52 0 0 0-1.547 1.547Zm26.3 0Z" data-name="Trazado 361"/></svg>