<svg xmlns="http://www.w3.org/2000/svg" width="37.654" height="25.724"><path fill="#fff" d="M18.675 25.724H3.988c-2.784 0-3.973-1.159-3.976-3.895q-.013-8.96 0-17.921c0-2.757 1.164-3.9 3.963-3.9q14.889-.011 29.779 0c2.764 0 3.9 1.167 3.9 3.954v17.921c0 2.654-1.2 3.837-3.889 3.84q-7.546.007-15.092 0M3.375 1.903c.377.423.62.721.891.993q6.224 6.258 12.456 12.508c1.553 1.558 2.674 1.551 4.237-.017q6.28-6.3 12.55-12.6c.23-.233.419-.507.725-.88Zm-.817 21.853h32.588l-10.588-9.522c-.924.976-1.7 1.846-2.53 2.665-2.027 2.007-4.379 2.018-6.393-.01-.844-.85-1.57-1.815-2.377-2.759-3.717 3.343-7.105 6.39-10.7 9.626m9-10.563-9.622-9.5v18.156l9.622-8.654m14.406-.162 9.718 8.731V3.484l-9.718 9.549" data-name="Trazado 160"/></svg>