<svg xmlns="http://www.w3.org/2000/svg" width="52" height="50" version="1.2"><path d="M-4-6h210v60H-4z" style="fill:none"/><path d="M-3.3-5.3h208.6v58.5H-3.2z" style="fill:none;stroke:#fff;stroke-width:1.5"/><path fill-rule="evenodd" d="M14.5 33.9v2.3q0 .2-.1.4-.1.3-.3.5l-.4.2q-.2.1-.5.1h-.8q-.3 0-.5-.1-.3-.1-.4-.2-.2-.2-.3-.5-.1-.2-.1-.4V22.6l3.6-10.8q0-.1.1-.2.1-.2.1-.3l.2-.2q.1-.1.3-.2.1-.1.2-.1.1-.1.3-.1.1-.1.3-.1h20q.2 0 .3.1.1 0 .3.1.1 0 .2.1t.3.2q.1.1.1.2.1.1.2.3.1.1.1.2l3.6 10.8v13.6q0 .2-.1.4-.1.3-.3.5l-.4.2q-.2.1-.5.1h-1.1q-.1 0-.2-.1-.2 0-.3-.1l-.1-.1-.2-.2q-.1-.1-.1-.3 0-.1-.1-.2v-2.5zm.1-13.8h23.3l-2.3-7H17zm-1 11.3h25.1v-8.8H13.6zm20.3-2.1q-.2-.1-.4-.1l-.4-.2q-.2-.2-.4-.3l-.2-.4q-.2-.2-.3-.4 0-.2-.1-.4v-.9q.1-.2.1-.4l.2-.4q.2-.2.3-.4.2-.2.4-.3.1-.1.4-.2.2-.1.4-.1.2-.1.4-.1.5 0 .9.2.5.2.8.5.3.3.5.8.2.4.2.9 0 .2-.1.4 0 .2-.1.4l-.2.4q-.1.2-.3.4l-.4.2q-.2.2-.4.3-.2 0-.4.1h-.9zm-16.3 0q-.2-.1-.5-.1l-.4-.2-.3-.3q-.2-.2-.3-.4l-.2-.4-.2-.4v-.4q0-.5.2-.9.2-.5.5-.8.3-.3.7-.5.5-.2.9-.2.3 0 .5.1.2 0 .4.1l.4.2q.2.1.4.3l.2.4q.2.2.2.4l.2.4v.9l-.2.4q0 .2-.2.4-.1.2-.2.3-.2.2-.4.3-.2.2-.4.3-.2 0-.4.1h-.9z" style="fill:#fff"/></svg>