<svg xmlns="http://www.w3.org/2000/svg" width="34.04" height="34.04"><path fill="#fff" d="M1.16 7.311A1.125 1.125 0 0 1 0 6.15V4.332a4.17 4.17 0 0 1 1.277-3.055A4.17 4.17 0 0 1 4.332 0H6.15a1.125 1.125 0 0 1 1.16 1.16 1.125 1.125 0 0 1-1.16 1.16H4.332a1.982 1.982 0 0 0-2.011 2.012V6.15a1.125 1.125 0 0 1-1.16 1.16m3.171 26.73a4.17 4.17 0 0 1-3.056-1.277A4.17 4.17 0 0 1 0 29.708V27.89a1.125 1.125 0 0 1 1.16-1.16 1.125 1.125 0 0 1 1.16 1.16v1.818a1.982 1.982 0 0 0 2.011 2.011H6.15a1.161 1.161 0 1 1 0 2.321Zm23.557-.155a1.161 1.161 0 1 1 0-2.321h1.818a1.982 1.982 0 0 0 2.011-2.011v-1.818a1.161 1.161 0 1 1 2.321 0v1.818a4.359 4.359 0 0 1-4.332 4.332ZM32.88 7.311a1.125 1.125 0 0 1-1.16-1.16V4.332a1.982 1.982 0 0 0-2.011-2.011H27.89a1.125 1.125 0 0 1-1.16-1.16A1.125 1.125 0 0 1 27.89 0h1.818a4.17 4.17 0 0 1 3.056 1.277 4.17 4.17 0 0 1 1.276 3.055V6.15a1.125 1.125 0 0 1-1.16 1.16m-17.1 21.817-8.51-4.99a2.111 2.111 0 0 1-.832-.851 2.422 2.422 0 0 1-.29-1.16v-9.941a2.422 2.422 0 0 1 .29-1.16 2.111 2.111 0 0 1 .832-.851l8.549-5.067a2.478 2.478 0 0 1 2.4 0l8.549 5.067a2.111 2.111 0 0 1 .832.851 2.422 2.422 0 0 1 .29 1.16v9.941a2.3 2.3 0 0 1-.309 1.16 2.247 2.247 0 0 1-.851.851l-8.63 4.991a2.331 2.331 0 0 1-2.321 0m.077-2.669v-8.665L8.51 13.577v8.471Zm2.321 0 7.388-4.41v-8.472l-7.385 4.217ZM17.02 15.7l7.35-4.255-7.35-4.211-7.35 4.216Z" data-name="Trazado 360"/></svg>