<svg xmlns="http://www.w3.org/2000/svg" width="18.278" height="16.965"><path fill="#fff" fill-rule="evenodd" d="M17.35 12.077c-.45-.225-2.66-1.313-3.072-1.464s-.712-.222-1.011.227-1.162 1.462-1.425 1.763-.525.337-.974.111a12.257 12.257 0 0 1-3.617-2.23 13.556 13.556 0 0 1-2.5-3.116c-.262-.449-.028-.693.2-.918.2-.2.45-.525.675-.787a3.088 3.088 0 0 0 .45-.75.829.829 0 0 0-.038-.788C5.926 3.901 5.026 1.687 4.651.787 4.287-.091 3.916.028 3.64.014S3.078 0 2.778 0a1.649 1.649 0 0 0-1.2.563 5.04 5.04 0 0 0-1.574 3.75 8.724 8.724 0 0 0 1.838 4.65c.223.3 3.17 4.843 7.68 6.79a26.02 26.02 0 0 0 2.564.948 6.167 6.167 0 0 0 2.833.178c.864-.129 2.66-1.088 3.035-2.139a3.758 3.758 0 0 0 .263-2.137c-.113-.188-.412-.3-.863-.526"/></svg>