<svg version="1.2" xmlns="http://www.w3.org/2000/svg" viewBox="0 0 53 60" width="53" height="60"><style>tspan{white-space:pre}.a{fill:#fff}.b{fill:#ae262c}.c{font-size: 28px;fill: #ae262c;font-weight: 500;font-family: "Roboto-Medium", "Roboto"}</style><path class="a" d="m0 0h210v60h-210z"/><path class="b" d="m19.3 50.8l6-30.2-5.2 2.2v6.8h-3.1v-8.9l9.9-4.2q0.2 0 0.3-0.1 0.2-0.1 0.4-0.1 0.2-0.1 0.4-0.1 0.2 0 0.4-0.1 0.2 0 0.4 0 0.2 0 0.4 0 0.2 0 0.4 0.1 0.2 0 0.4 0 0.2 0.1 0.4 0.1 0.2 0.1 0.4 0.1 0.1 0.1 0.3 0.2 0.2 0.1 0.4 0.2 0.1 0.1 0.3 0.2 0.1 0.1 0.3 0.2 0.1 0.2 0.2 0.3 0.1 0.2 0.2 0.3l2.2 3.4q0.4 0.6 0.8 1.2 0.5 0.5 1 1 0.5 0.5 1 0.9 0.6 0.5 1.2 0.8 0.6 0.4 1.2 0.6 0.6 0.3 1.3 0.5 0.6 0.2 1.3 0.2 0.7 0.1 1.3 0.1v3.1q-0.8 0-1.6-0.1-0.8-0.1-1.6-0.3-0.9-0.2-1.6-0.5-0.8-0.3-1.5-0.6-0.8-0.5-1.5-1-0.7-0.4-1.3-1-0.6-0.6-1.2-1.2-0.5-0.7-1-1.4l-2 7.9 4.8 4.3v15.1h-3.1v-12.4l-5.6-5.1-4.1 17.5zm13.5-36.8q-0.7 0-1.4-0.3-0.7-0.3-1.2-0.9-0.5-0.5-0.8-1.2-0.3-0.7-0.3-1.4c0-1.3 0.6-2.4 1.6-3.1 1.1-0.7 2.4-0.9 3.6-0.4 1.1 0.5 2 1.5 2.2 2.8 0.3 1.2-0.1 2.5-1 3.3q-0.3 0.3-0.6 0.5-0.3 0.2-0.6 0.4-0.4 0.1-0.7 0.2-0.4 0.1-0.8 0.1z"/></svg>